<svg width="36" height="36" viewBox="0 0 36 36" fill="none" xmlns="http://www.w3.org/2000/svg">
<g id="discount-check">
<path id="Vector" d="M13.5 18L16.5 21L22.5 15M7.49996 10.8C7.49996 9.92481 7.84764 9.08544 8.46651 8.46657C9.08538 7.8477 9.92474 7.50002 10.8 7.50002H12.3C13.1713 7.49952 14.0071 7.15442 14.625 6.54002L15.675 5.49002C15.9816 5.18162 16.3462 4.93688 16.7478 4.76988C17.1494 4.60288 17.58 4.51691 18.015 4.51691C18.4499 4.51691 18.8805 4.60288 19.2821 4.76988C19.6837 4.93688 20.0483 5.18162 20.355 5.49002L21.405 6.54002C22.023 7.15502 22.86 7.50002 23.73 7.50002H25.23C26.1052 7.50002 26.9445 7.8477 27.5634 8.46657C28.1823 9.08544 28.53 9.92481 28.53 10.8V12.3C28.53 13.17 28.875 14.007 29.49 14.625L30.54 15.675C30.8484 15.9817 31.0931 16.3463 31.2601 16.7479C31.4271 17.1495 31.5131 17.5801 31.5131 18.015C31.5131 18.4499 31.4271 18.8806 31.2601 19.2822C31.0931 19.6837 30.8484 20.0483 30.54 20.355L29.49 21.405C28.8756 22.0229 28.5305 22.8587 28.53 23.73V25.23C28.53 26.1052 28.1823 26.9446 27.5634 27.5635C26.9445 28.1823 26.1052 28.53 25.23 28.53H23.73C22.8586 28.5305 22.0228 28.8756 21.405 29.49L20.355 30.54C20.0483 30.8484 19.6837 31.0932 19.2821 31.2602C18.8805 31.4272 18.4499 31.5131 18.015 31.5131C17.58 31.5131 17.1494 31.4272 16.7478 31.2602C16.3462 31.0932 15.9816 30.8484 15.675 30.54L14.625 29.49C14.0071 28.8756 13.1713 28.5305 12.3 28.53H10.8C9.92474 28.53 9.08538 28.1823 8.46651 27.5635C7.84764 26.9446 7.49996 26.1052 7.49996 25.23V23.73C7.49946 22.8587 7.15436 22.0229 6.53996 21.405L5.48996 20.355C5.18156 20.0483 4.93682 19.6837 4.76982 19.2822C4.60282 18.8806 4.51685 18.4499 4.51685 18.015C4.51685 17.5801 4.60282 17.1495 4.76982 16.7479C4.93682 16.3463 5.18156 15.9817 5.48996 15.675L6.53996 14.625C7.15436 14.0072 7.49946 13.1714 7.49996 12.3V10.8Z" stroke="#06C167" stroke-width="2" stroke-linecap="round" stroke-linejoin="round"/>
</g>
</svg>
