<svg width="36" height="36" viewBox="0 0 36 36" fill="none" xmlns="http://www.w3.org/2000/svg">
<g id="headset">
<path id="Vector" d="M6 21V16.5C6 13.3174 7.26428 10.2652 9.51472 8.01472C11.7652 5.76428 14.8174 4.5 18 4.5C21.1826 4.5 24.2348 5.76428 26.4853 8.01472C28.7357 10.2652 30 13.3174 30 16.5V21M6 21C6 20.2044 6.31607 19.4413 6.87868 18.8787C7.44129 18.3161 8.20435 18 9 18H10.5C11.2956 18 12.0587 18.3161 12.6213 18.8787C13.1839 19.4413 13.5 20.2044 13.5 21V25.5C13.5 26.2956 13.1839 27.0587 12.6213 27.6213C12.0587 28.1839 11.2956 28.5 10.5 28.5H9C8.20435 28.5 7.44129 28.1839 6.87868 27.6213C6.31607 27.0587 6 26.2956 6 25.5V21ZM30 21C30 20.2044 29.6839 19.4413 29.1213 18.8787C28.5587 18.3161 27.7956 18 27 18H25.5C24.7044 18 23.9413 18.3161 23.3787 18.8787C22.8161 19.4413 22.5 20.2044 22.5 21V25.5C22.5 26.2956 22.8161 27.0587 23.3787 27.6213C23.9413 28.1839 24.7044 28.5 25.5 28.5H27M30 21V25.5C30 26.2956 29.6839 27.0587 29.1213 27.6213C28.5587 28.1839 27.7956 28.5 27 28.5M27 28.5C27 30.9855 22.971 33 18 33" stroke="#06C167" stroke-width="2" stroke-linecap="round" stroke-linejoin="round"/>
</g>
</svg>
