<svg width="36" height="36" viewBox="0 0 36 36" fill="none" xmlns="http://www.w3.org/2000/svg">
<g id="truck">
<path id="Vector" d="M7.5 25.5C7.5 26.2956 7.81607 27.0587 8.37868 27.6213C8.94129 28.1839 9.70435 28.5 10.5 28.5C11.2956 28.5 12.0587 28.1839 12.6213 27.6213C13.1839 27.0587 13.5 26.2956 13.5 25.5M7.5 25.5C7.5 24.7044 7.81607 23.9413 8.37868 23.3787C8.94129 22.8161 9.70435 22.5 10.5 22.5C11.2956 22.5 12.0587 22.8161 12.6213 23.3787C13.1839 23.9413 13.5 24.7044 13.5 25.5M7.5 25.5H4.5V9C4.5 8.60218 4.65804 8.22064 4.93934 7.93934C5.22064 7.65804 5.60218 7.5 6 7.5H19.5V25.5M13.5 25.5H22.5M22.5 25.5C22.5 26.2956 22.8161 27.0587 23.3787 27.6213C23.9413 28.1839 24.7044 28.5 25.5 28.5C26.2956 28.5 27.0587 28.1839 27.6213 27.6213C28.1839 27.0587 28.5 26.2956 28.5 25.5M22.5 25.5C22.5 24.7044 22.8161 23.9413 23.3787 23.3787C23.9413 22.8161 24.7044 22.5 25.5 22.5C26.2956 22.5 27.0587 22.8161 27.6213 23.3787C28.1839 23.9413 28.5 24.7044 28.5 25.5M28.5 25.5H31.5V16.5M31.5 16.5H19.5M31.5 16.5L27 9H19.5" stroke="#06C167" stroke-width="2" stroke-linecap="round" stroke-linejoin="round"/>
</g>
</svg>
